<svg xmlns="http://www.w3.org/2000/svg" xmlns:oryx="http://oryx-editor.org" id="_C4E11C64-3BB3-40C3-8221-BB06307C795D" width="650" height="186" xmlns:xlink="http://www.w3.org/1999/xlink" xmlns:svg="http://www.w3.org/2000/svg"><defs><marker id="_5D71A2AB-1923-49FE-914B-32C785C838C9start" refX="1" refY="5" markerUnits="userSpaceOnUse" markerWidth="17" markerHeight="11" orient="auto" fill="#000000" stroke="#000000"> 	  		<path id="_5D71A2AB-1923-49FE-914B-32C785C838C9conditional" d="M 0 5 L 8 0 L 16 5 L 8 10 L 0 5" fill="white" stroke="#000000" stroke-width="1" display="none"/> 			<path id="_5D71A2AB-1923-49FE-914B-32C785C838C9default" d="M 5 0 L 11 10" fill="white" stroke="#000000" stroke-width="1" display="none"/> 	  	</marker><marker id="_5D71A2AB-1923-49FE-914B-32C785C838C9end" refX="15" refY="6" markerUnits="userSpaceOnUse" markerWidth="15" markerHeight="12" orient="auto" fill="#000000" stroke="#000000"> 	  		<path id="_5D71A2AB-1923-49FE-914B-32C785C838C9frame2" d="M 0 1 L 15 6 L 0 11z" fill="#000000" stroke="#000000" stroke-linejoin="round" stroke-width="2"/> 	  	</marker><marker id="_90770C56-20E8-4FEA-9F7F-027C22DC5164start" refX="1" refY="5" markerUnits="userSpaceOnUse" markerWidth="17" markerHeight="11" orient="auto" fill="#000000" stroke="#000000"> 	  		<path id="_90770C56-20E8-4FEA-9F7F-027C22DC5164conditional" d="M 0 5 L 8 0 L 16 5 L 8 10 L 0 5" fill="white" stroke="#000000" stroke-width="1" display="none"/> 			<path id="_90770C56-20E8-4FEA-9F7F-027C22DC5164default" d="M 5 0 L 11 10" fill="white" stroke="#000000" stroke-width="1" display="none"/> 	  	</marker><marker id="_90770C56-20E8-4FEA-9F7F-027C22DC5164end" refX="15" refY="6" markerUnits="userSpaceOnUse" markerWidth="15" markerHeight="12" orient="auto" fill="#000000" stroke="#000000"> 	  		<path id="_90770C56-20E8-4FEA-9F7F-027C22DC5164frame2" d="M 0 1 L 15 6 L 0 11z" fill="#000000" stroke="#000000" stroke-linejoin="round" stroke-width="2"/> 	  	</marker><marker id="_86BD077A-FF67-453A-82E8-BE6C9259DB77start" refX="1" refY="5" markerUnits="userSpaceOnUse" markerWidth="17" markerHeight="11" orient="auto" fill="#000000" stroke="#000000"> 	  		<path id="_86BD077A-FF67-453A-82E8-BE6C9259DB77conditional" d="M 0 5 L 8 0 L 16 5 L 8 10 L 0 5" fill="white" stroke="#000000" stroke-width="1" display="none"/> 			<path id="_86BD077A-FF67-453A-82E8-BE6C9259DB77default" d="M 5 0 L 11 10" fill="white" stroke="#000000" stroke-width="1" display="none"/> 	  	</marker><marker id="_86BD077A-FF67-453A-82E8-BE6C9259DB77end" refX="15" refY="6" markerUnits="userSpaceOnUse" markerWidth="15" markerHeight="12" orient="auto" fill="#000000" stroke="#000000"> 	  		<path id="_86BD077A-FF67-453A-82E8-BE6C9259DB77frame2" d="M 0 1 L 15 6 L 0 11z" fill="#000000" stroke="#000000" stroke-linejoin="round" stroke-width="2"/> 	  	</marker><marker id="_8805D29E-A0B2-4515-A865-FE5AA333646Dstart" refX="1" refY="5" markerUnits="userSpaceOnUse" markerWidth="17" markerHeight="11" orient="auto" fill="#000000" stroke="#000000"> 	  		<path id="_8805D29E-A0B2-4515-A865-FE5AA333646Dconditional" d="M 0 5 L 8 0 L 16 5 L 8 10 L 0 5" fill="white" stroke="#000000" stroke-width="1" display="none"/> 			<path id="_8805D29E-A0B2-4515-A865-FE5AA333646Ddefault" d="M 5 0 L 11 10" fill="white" stroke="#000000" stroke-width="1" display="none"/> 	  	</marker><marker id="_8805D29E-A0B2-4515-A865-FE5AA333646Dend" refX="15" refY="6" markerUnits="userSpaceOnUse" markerWidth="15" markerHeight="12" orient="auto" fill="#000000" stroke="#000000"> 	  		<path id="_8805D29E-A0B2-4515-A865-FE5AA333646Dframe2" d="M 0 1 L 15 6 L 0 11z" fill="#000000" stroke="#000000" stroke-linejoin="round" stroke-width="2"/> 	  	</marker></defs><g stroke="none" font-family="Verdana, sans-serif" font-size-adjust="none" font-style="normal" font-variant="normal" font-weight="normal" line-heigth="normal" font-size="12"><g class="stencils" transform="translate(15, 16)"><g class="me"/><g class="children"><g id="_41A1F1D7-4C40-449D-90C1-D8A042AEE5D5" bpmn2nodeid="_CE2A0C3D-396A-4611-BB19-A7FE11D6DC09"><g class="stencils" transform="translate(28, 71)"><g class="me"><g pointer-events="fill" id="_41A1F1D7-4C40-449D-90C1-D8A042AEE5D5">        <defs id="_41A1F1D7-4C40-449D-90C1-D8A042AEE5D5__41A1F1D7-4C40-449D-90C1-D8A042AEE5D5_5"> 		<radialGradient id="_41A1F1D7-4C40-449D-90C1-D8A042AEE5D5background" cx="10%" cy="10%" r="100%" fx="10%" fy="10%"> 			<stop offset="0%" stop-color="#ffffff" stop-opacity="1" id="_41A1F1D7-4C40-449D-90C1-D8A042AEE5D5__41A1F1D7-4C40-449D-90C1-D8A042AEE5D5_6"/> 			<stop id="_41A1F1D7-4C40-449D-90C1-D8A042AEE5D5fill_el" offset="100%" stop-color="#9acd32" stop-opacity="1"/> 		</radialGradient> 	</defs> 	     <circle id="_41A1F1D7-4C40-449D-90C1-D8A042AEE5D5bg_frame" cx="15" cy="15" r="15" stroke="#000000" fill="url(#_41A1F1D7-4C40-449D-90C1-D8A042AEE5D5background) white" stroke-width="1" style="stroke-dasharray: 5.5, 3"/>      <circle id="_41A1F1D7-4C40-449D-90C1-D8A042AEE5D5frame" cx="15" cy="15" r="15" stroke="#000000" fill="none" stroke-width="1" display="inherit"/>  	<text font-size="11" id="_41A1F1D7-4C40-449D-90C1-D8A042AEE5D5text_name" x="15" y="32" oryx:align="top center" stroke="black" stroke-width="0pt" letter-spacing="-0.01px" fill="#000000" text-anchor="middle" transform="rotate(0 15 32)" visibility="inherit" oryx:fontSize="11"><tspan x="15" y="32" dy="11">Start</tspan></text>   </g></g><g class="children" style="overflow:hidden"/><g class="edge"/></g><g class="controls"><g class="dockers"/><g class="magnets" transform="translate(28, 71)"><g pointer-events="all" display="none" transform="translate(7, 7)"><circle cx="8" cy="8" r="4" stroke="none" fill="red" fill-opacity="0.3"/></g></g></g></g><g id="_E5FCC9FF-6130-45AB-9290-E783F4F4F634" bpmn2nodeid="_3C3BA752-DF4F-47E1-B28A-11FF6AEA0631"><g class="stencils" transform="translate(120, 59)"><g class="me"><g pointer-events="fill" oryx:minimumSize="50 40" id="_E5FCC9FF-6130-45AB-9290-E783F4F4F634">   	<defs id="_E5FCC9FF-6130-45AB-9290-E783F4F4F634__E5FCC9FF-6130-45AB-9290-E783F4F4F634_17"> 		<radialGradient id="_E5FCC9FF-6130-45AB-9290-E783F4F4F634background" cx="10%" cy="10%" r="100%" fx="10%" fy="10%"> 			<stop offset="0%" stop-color="#ffffff" stop-opacity="1" id="_E5FCC9FF-6130-45AB-9290-E783F4F4F634__E5FCC9FF-6130-45AB-9290-E783F4F4F634_18"/> 			<stop id="_E5FCC9FF-6130-45AB-9290-E783F4F4F634fill_el" offset="100%" stop-color="#fafad2" stop-opacity="1"/> 		</radialGradient> 		<radialGradient id="_E5FCC9FF-6130-45AB-9290-E783F4F4F634borderbackground" cx="10%" cy="10%" r="100%" fx="10%" fy="10%"> 			<stop offset="0%" stop-color="#ffffff" stop-opacity="1" id="_E5FCC9FF-6130-45AB-9290-E783F4F4F634__E5FCC9FF-6130-45AB-9290-E783F4F4F634_19"/> 			<stop id="_E5FCC9FF-6130-45AB-9290-E783F4F4F634fill_border" offset="100%" stop-color="#000000" stop-opacity="1" stroke="#000000"/> 		</radialGradient> 	</defs> 	 	<rect id="_E5FCC9FF-6130-45AB-9290-E783F4F4F634text_frame" oryx:anchors="bottom top right left" x="1" y="1" width="95" height="54" rx="10" ry="10" stroke="none" stroke-width="0" fill="none"/> 	<rect id="_E5FCC9FF-6130-45AB-9290-E783F4F4F634bg_frame" oryx:resize="vertical horizontal" x="0" y="0" width="101" height="55" rx="10" ry="10" stroke="#000000" stroke-width="1" fill="url(#_E5FCC9FF-6130-45AB-9290-E783F4F4F634background) #ffffcc"/> 		<text font-size="12" id="_E5FCC9FF-6130-45AB-9290-E783F4F4F634text_name" x="50.5" y="27.5" oryx:align="middle center" oryx:fittoelem="text_frame" stroke="black" text-anchor="middle" stroke-width="0pt" letter-spacing="-0.01px" fill="#000000" transform="rotate(0 50.5 27.5)" visibility="inherit" oryx:fontSize="12"><tspan x="50.5" y="27.5" dy="-1">Throw </tspan><tspan x="50.5" y="27.5" dy="11" id="ext-gen609">Exception</tspan></text>     <g id="_E5FCC9FF-6130-45AB-9290-E783F4F4F634manualTask" transform="scale(0.7,0.7) translate(8,8)" display="none">     	<path oryx:anchors="top left" id="_E5FCC9FF-6130-45AB-9290-E783F4F4F634frame" style="opacity:1;fill:none;fill-opacity:1;stroke-width:1" d="M0.5,3.751l4.083-3.25c0,0,11.166,0.083,12.083,0.083s-2.417,2.917-1.5,2.917     s11.667,0,12.584,0c1.166,1.708-0.168,3.167-0.834,3.667s0.875,1.917-1,4.417c-0.75,0.25,0.75,1.875-1.333,3.333     c-1.167,0.583,0.583,1.542-1.25,2.833c-1.167,0-20.833,0.083-20.833,0.083l-2-1.333V3.751z" stroke="#000000"/> 		<path id="_E5FCC9FF-6130-45AB-9290-E783F4F4F634frame2" oryx:anchors="top left" style="opacity:1;fill:none;stroke-width:2" d="M 13.5 7 L 27 7" stroke="#000000"/> 		<path id="_E5FCC9FF-6130-45AB-9290-E783F4F4F634frame3" oryx:anchors="top left" style="opacity:1;fill:none;stroke-width:2" d="M 13.5 11 L 26 11" stroke="#000000"/> 		<path id="_E5FCC9FF-6130-45AB-9290-E783F4F4F634frame4" oryx:anchors="top left" style="opacity:1;fill:none;stroke-width:1.5" d="M 14 14.5 L 25 14.5" stroke="#000000"/> 		<path id="_E5FCC9FF-6130-45AB-9290-E783F4F4F634frame5" oryx:anchors="top left" style="opacity:1;fill:none;stroke-width:1.5" d="M 8.2 3.1 L 15 3.1" stroke="#000000"/> 	</g> 	 	<g id="_E5FCC9FF-6130-45AB-9290-E783F4F4F634businessRuleTask" transform="scale(0.7,0.7) translate(8,8)" display="none"> 		<rect id="_E5FCC9FF-6130-45AB-9290-E783F4F4F634frame6" oryx:anchors="top left" x="0" y="0" width="22" height="4" style="opacity:1;fill:#B3B1B3;fill-opacity:1;" stroke="#000000"/> 		<rect id="_E5FCC9FF-6130-45AB-9290-E783F4F4F634frame7" oryx:anchors="top left" x="0" y="4" style="opacity:1;fill:none;" width="22" height="12" stroke="#000000"/> 		<path id="_E5FCC9FF-6130-45AB-9290-E783F4F4F634frame8" oryx:anchors="top left" style="opacity:1;fill:none;" d="M 0 10 L 22 10" stroke="#000000"/> 		<path id="_E5FCC9FF-6130-45AB-9290-E783F4F4F634frame9" oryx:anchors="top left" style="opacity:1; fill:none;" d="M 7 4 L 7 16" stroke="#000000"/> 	</g> 	 	<g id="_E5FCC9FF-6130-45AB-9290-E783F4F4F634scriptTask" transform="scale(0.7,0.7) translate(8,8)" display="none"> 		<path oryx:anchors="top left" id="_E5FCC9FF-6130-45AB-9290-E783F4F4F634frame10" style="opacity:1;fill:none;" stroke="#000000" d="M6.402,0.5h14.5c0,0-5.833,2.833-5.833,5.583s4.417,6,4.417,9.167    s-4.167,5.083-4.167,5.083H0.235c0,0,5-2.667,5-5s-4.583-6.75-4.583-9.25S6.402,0.5,6.402,0.5z"/> 		<path oryx:anchors="top left" id="_E5FCC9FF-6130-45AB-9290-E783F4F4F634frame11" style="opacity:1;fill:none;stroke-width:1.5" d="M 3.5 4.5 L 13.5 4.5" stroke="#000000"/> 		<path oryx:anchors="top left" id="_E5FCC9FF-6130-45AB-9290-E783F4F4F634frame12" style="opacity:1;fill:none;stroke-width:1.5" d="M 3.8 8.5 L 13.8 8.5" stroke="#000000"/> 		<path oryx:anchors="top left" id="_E5FCC9FF-6130-45AB-9290-E783F4F4F634frame13" style="opacity:1;fill:none;stroke-width:1.5" d="M 6.3 12.5 L 16.3 12.5" stroke="#000000"/> 		<path oryx:anchors="top left" id="_E5FCC9FF-6130-45AB-9290-E783F4F4F634frame14" style="opacity:1;fill:none;stroke-width:1.5" d="M 6.5 16.5 L 16.5 16.5" stroke="#000000"/> 	</g> 	 	<g id="_E5FCC9FF-6130-45AB-9290-E783F4F4F634userTask" transform="scale(0.7,0.7) translate(8,8)" display="none"> 		<path id="_E5FCC9FF-6130-45AB-9290-E783F4F4F634frame15" oryx:anchors="top left" style="opacity:1;fill:#F4F6F7" stroke="#000000" d="M0.585,24.167h24.083v-7.833c0,0-2.333-3.917-7.083-5.167h-9.25    c-4.417,1.333-7.833,5.75-7.833,5.75L0.585,24.167z"/> 		<path id="_E5FCC9FF-6130-45AB-9290-E783F4F4F634frame16" oryx:anchors="top left" style="opacity:1;fill:none" d="M 6 20 L 6 24" stroke="#000000"/> 		<path id="_E5FCC9FF-6130-45AB-9290-E783F4F4F634frame17" oryx:anchors="top left" style="opacity:1;fill:none" d="M 20 20 L 20 24" stroke="#000000"/> 		<circle id="_E5FCC9FF-6130-45AB-9290-E783F4F4F634frame18" oryx:anchors="top left" fill="black" cx="13.002" cy="5.916" r="5.417" stroke="#000000"/> 		<path id="_E5FCC9FF-6130-45AB-9290-E783F4F4F634frame19" oryx:anchors="top left" style="opacity:1;fill:#F0EFF0;" stroke="#000000" d="M8.043,7.083c0,0,2.814-2.426,5.376-1.807s4.624-0.693,4.624-0.693    c0.25,1.688,0.042,3.75-1.458,5.584c0,0,1.083,0.75,1.083,1.5s0.125,1.875-1,3s-5.5,1.25-6.75,0S8.668,12.834,8.668,12    s0.583-1.25,1.25-1.917C8.835,9.5,7.419,7.708,8.043,7.083z"/> 	</g> 	 	<g id="_E5FCC9FF-6130-45AB-9290-E783F4F4F634serviceTask" transform="scale(0.7,0.7) translate(8,8)" display="inherit"> 		<polygon oryx:anchors="top left" id="_E5FCC9FF-6130-45AB-9290-E783F4F4F634frame20" style="opacity:1;fill:#ffffff" stroke="#000000" points="15.392,5.064 17.954,2.502 20.347,4.895 17.786,7.455     18.729,9.732 22.353,9.732 22.353,13.115 18.731,13.115 17.788,15.392 20.351,17.955 17.958,20.347 15.397,17.786 13.12,18.729     13.12,22.353 9.737,22.353 9.737,18.731 7.46,17.788 4.897,20.35 2.506,17.958 5.066,15.397 4.124,13.12 0.5,13.12 0.5,9.737     4.121,9.737 5.065,7.461 2.503,4.898 4.895,2.506 7.455,5.066 9.732,4.125 9.732,0.5 13.116,0.5 13.116,4.121 "/> 		<circle oryx:anchors="top left" id="_E5FCC9FF-6130-45AB-9290-E783F4F4F634frame21" style="opacity:1;fill:none" stroke="#000000" cx="11.427" cy="11.426" r="3.714"/> 		<polygon oryx:anchors="top left" id="_E5FCC9FF-6130-45AB-9290-E783F4F4F634frame22" style="opacity:1;fill:#ffffff" stroke="#000000" points="21.392,11.064 23.954,8.502 26.347,10.895 23.786,13.455     24.729,15.732 28.353,15.732 28.353,19.115 24.731,19.115 23.788,21.392 26.351,23.955 23.958,26.347 21.397,23.786 19.12,24.729     19.12,28.353 15.737,28.353 15.737,24.731 13.46,23.788 10.897,26.35 8.506,23.958 11.066,21.397 10.124,19.12 6.5,19.12     6.5,15.737 10.121,15.737 11.065,13.461 8.503,10.898 10.895,8.506 13.455,11.066 15.732,10.125 15.732,6.5 19.116,6.5     19.116,10.121 "/> 		<circle oryx:anchors="top left" id="_E5FCC9FF-6130-45AB-9290-E783F4F4F634frame23" style="opacity:1;fill:none;" stroke="#000000" cx="17.427" cy="17.426" r="3.714"/> 	</g> 	 	<g id="_E5FCC9FF-6130-45AB-9290-E783F4F4F634sendTask" display="none"> 		<path id="_E5FCC9FF-6130-45AB-9290-E783F4F4F634stframe24" oryx:anchors="left top" stroke="#FFFFFF" fill="black" stroke-width="1" d="M8,11 L8,21 L24,21 L24,11 L16,17z"/> 		<path id="_E5FCC9FF-6130-45AB-9290-E783F4F4F634stframe25" oryx:anchors="left top" stroke="#FFFFFF" fill="black" stroke-width="1" d="M7,10 L16,17 L25 10z"/> 	</g> 	 	<g id="_E5FCC9FF-6130-45AB-9290-E783F4F4F634receiveTask" display="none"> 		<path id="_E5FCC9FF-6130-45AB-9290-E783F4F4F634frame26" oryx:anchors="left top" stroke="#000000" fill="none" stroke-width="1" d="M8,11 L8,21 L24,21 L24,11z M8,11 L16,17 L24,11"/> 	</g> 	 	<g id="_E5FCC9FF-6130-45AB-9290-E783F4F4F634none" display="inherit"/>  	<g id="_E5FCC9FF-6130-45AB-9290-E783F4F4F634sequential" display="none">         <path oryx:anchors="bottom" fill="none" stroke="#000000" stroke-width="2" d=" M46.51 51  h10  M46.51 47  h10  M46.51 43  h10 " id="_E5FCC9FF-6130-45AB-9290-E783F4F4F634__E5FCC9FF-6130-45AB-9290-E783F4F4F634_20"/>     </g>   </g></g><g class="children" style="overflow:hidden"/><g class="edge"/></g><g class="controls"><g class="dockers"/><g class="magnets" transform="translate(120, 59)"><g pointer-events="all" display="none" transform="translate(-7, 5.75)"><circle cx="8" cy="8" r="4" stroke="none" fill="red" fill-opacity="0.3"/></g><g pointer-events="all" display="none" transform="translate(-7, 19.5)"><circle cx="8" cy="8" r="4" stroke="none" fill="red" fill-opacity="0.3"/></g><g pointer-events="all" display="none" transform="translate(-7, 33.25)"><circle cx="8" cy="8" r="4" stroke="none" fill="red" fill-opacity="0.3"/></g><g pointer-events="all" display="none" transform="translate(17.25, 46)"><circle cx="8" cy="8" r="4" stroke="none" fill="red" fill-opacity="0.3"/></g><g pointer-events="all" display="none" transform="translate(42.5, 46)"><circle cx="8" cy="8" r="4" stroke="none" fill="red" fill-opacity="0.3"/></g><g pointer-events="all" display="none" transform="translate(67.75, 46)"><circle cx="8" cy="8" r="4" stroke="none" fill="red" fill-opacity="0.3"/></g><g pointer-events="all" display="none" transform="translate(92, 5.75)"><circle cx="8" cy="8" r="4" stroke="none" fill="red" fill-opacity="0.3"/></g><g pointer-events="all" display="none" transform="translate(92, 19.5)"><circle cx="8" cy="8" r="4" stroke="none" fill="red" fill-opacity="0.3"/></g><g pointer-events="all" display="none" transform="translate(92, 33.25)"><circle cx="8" cy="8" r="4" stroke="none" fill="red" fill-opacity="0.3"/></g><g pointer-events="all" display="none" transform="translate(17.25, -7)"><circle cx="8" cy="8" r="4" stroke="none" fill="red" fill-opacity="0.3"/></g><g pointer-events="all" display="none" transform="translate(42.5, -7)"><circle cx="8" cy="8" r="4" stroke="none" fill="red" fill-opacity="0.3"/></g><g pointer-events="all" display="none" transform="translate(67.75, -7)"><circle cx="8" cy="8" r="4" stroke="none" fill="red" fill-opacity="0.3"/></g><g pointer-events="all" display="none" transform="translate(42.5, 19.5)"><circle cx="8" cy="8" r="4" stroke="none" fill="red" fill-opacity="0.3"/></g></g></g></g><g id="_41C81468-0941-4059-A5A8-B0BE83440A4D" bpmn2nodeid="_33B667BC-9AD6-4634-A7B0-C9A35014A423"><g class="stencils" transform="translate(265, 71)"><g class="me"><g pointer-events="fill" id="_41C81468-0941-4059-A5A8-B0BE83440A4D">       <defs id="_41C81468-0941-4059-A5A8-B0BE83440A4D__41C81468-0941-4059-A5A8-B0BE83440A4D_5"> 		<radialGradient id="_41C81468-0941-4059-A5A8-B0BE83440A4Dbackground" cx="10%" cy="10%" r="100%" fx="10%" fy="10%"> 			<stop offset="0%" stop-color="#ffffff" stop-opacity="1" id="_41C81468-0941-4059-A5A8-B0BE83440A4D__41C81468-0941-4059-A5A8-B0BE83440A4D_6"/> 			<stop id="_41C81468-0941-4059-A5A8-B0BE83440A4Dfill_el" offset="100%" stop-color="#ff6347" stop-opacity="1"/> 		</radialGradient> 		<radialGradient id="_41C81468-0941-4059-A5A8-B0BE83440A4Dborderbackground" cx="10%" cy="10%" r="100%" fx="10%" fy="10%"> 			<stop offset="0%" stop-color="#ffffff" stop-opacity="1" id="_41C81468-0941-4059-A5A8-B0BE83440A4D__41C81468-0941-4059-A5A8-B0BE83440A4D_7"/> 			<stop id="_41C81468-0941-4059-A5A8-B0BE83440A4Dfill_border" offset="100%" stop-color="#000000" stop-opacity="1" stroke="#000000"/> 		</radialGradient> 	</defs> 	     <circle id="_41C81468-0941-4059-A5A8-B0BE83440A4Dbg_frame" cx="14" cy="14" r="14" stroke="#000000" fill="url(#_41C81468-0941-4059-A5A8-B0BE83440A4Dbackground) white" stroke-width="3"/>          <circle id="_41C81468-0941-4059-A5A8-B0BE83440A4Dframe" cx="14" cy="14" r="9" stroke="#000000" fill="url(#_41C81468-0941-4059-A5A8-B0BE83440A4Dborderbackground)" stroke-width="1"/> 	<text font-size="11" id="_41C81468-0941-4059-A5A8-B0BE83440A4Dtext_name" x="14" y="30" oryx:align="top center" stroke="black" stroke-width="0pt" letter-spacing="-0.01px" fill="#000000" text-anchor="middle" transform="rotate(0 14 30)" visibility="inherit" oryx:fontSize="11"><tspan x="14" y="30" dy="11">End</tspan></text>   </g></g><g class="children" style="overflow:hidden"/><g class="edge"/></g><g class="controls"><g class="dockers"/><g class="magnets" transform="translate(265, 71)"><g pointer-events="all" display="none" transform="translate(6, 6)"><circle cx="8" cy="8" r="4" stroke="none" fill="red" fill-opacity="0.3"/></g></g></g></g><g id="_FB58ABB0-3F89-43C2-B459-EDB92CF7685D" bpmn2nodeid="_35B3EAAF-18B1-496F-9BFD-079055D9D1B0"><g class="stencils" transform="translate(330, 30)"><g class="me"><g pointer-events="fill" oryx:minimumSize="120 100" oryx:maximumSize="" id="_FB58ABB0-3F89-43C2-B459-EDB92CF7685D">   	<defs id="_FB58ABB0-3F89-43C2-B459-EDB92CF7685D__FB58ABB0-3F89-43C2-B459-EDB92CF7685D_9"> 		<radialGradient id="_FB58ABB0-3F89-43C2-B459-EDB92CF7685Dbackground" cx="10%" cy="10%" r="100%" fx="10%" fy="10%"> 			<stop offset="0%" stop-color="#ffffff" stop-opacity="1" id="_FB58ABB0-3F89-43C2-B459-EDB92CF7685D__FB58ABB0-3F89-43C2-B459-EDB92CF7685D_10"/> 			<stop id="_FB58ABB0-3F89-43C2-B459-EDB92CF7685Dfill_el" offset="100%" stop-color="#fafad2" stop-opacity="1"/> 		</radialGradient> 	</defs> 	 	<rect id="_FB58ABB0-3F89-43C2-B459-EDB92CF7685Dtext_frame" oryx:anchors="bottom top right left" x="0" y="0" width="270" height="115" rx="10" ry="10" stroke="none" stroke-width="0" fill="none"/> 	<rect id="_FB58ABB0-3F89-43C2-B459-EDB92CF7685Dbg_frame" oryx:anchors="bottom top right left" oryx:resize="vertical horizontal" x="0" y="0" width="280" height="115" rx="10" ry="10" stroke="#000000" stroke-width="1" stroke-dasharray="2,2,2" fill="url(#_FB58ABB0-3F89-43C2-B459-EDB92CF7685Dbackground) white"/>     	<text font-size="12" id="_FB58ABB0-3F89-43C2-B459-EDB92CF7685Dtext_name" x="8" y="10" oryx:align="top left" oryx:fittoelem="text_frame" oryx:anchors="left top" stroke="black" stroke-width="0pt" letter-spacing="-0.01px" fill="#000000" text-anchor="start" transform="rotate(0 8 10)" visibility="inherit" oryx:fontSize="12"><tspan x="8" y="10" dy="12">Exception Handler</tspan></text>     	 	<g id="_FB58ABB0-3F89-43C2-B459-EDB92CF7685Dnone"/>   </g></g><g class="children" style="overflow:hidden"><g id="_EE6E2C0F-447E-4480-98EC-111E94385618" bpmn2nodeid="_D63B281F-C112-43D6-A243-0DF42A3D1DB4"><g class="stencils" transform="translate(15, 45)"><g class="me"><g pointer-events="fill" id="_EE6E2C0F-447E-4480-98EC-111E94385618">        <defs id="_EE6E2C0F-447E-4480-98EC-111E94385618__EE6E2C0F-447E-4480-98EC-111E94385618_6"> 		<radialGradient id="_EE6E2C0F-447E-4480-98EC-111E94385618background" cx="10%" cy="10%" r="100%" fx="10%" fy="10%"> 			<stop offset="0%" stop-color="#ffffff" stop-opacity="1" id="_EE6E2C0F-447E-4480-98EC-111E94385618__EE6E2C0F-447E-4480-98EC-111E94385618_7"/> 			<stop id="_EE6E2C0F-447E-4480-98EC-111E94385618fill_el" offset="100%" stop-color="#9acd32" stop-opacity="1"/> 		</radialGradient> 	</defs> 	     <circle id="_EE6E2C0F-447E-4480-98EC-111E94385618bg_frame" cx="15" cy="15" r="15" stroke="#000000" fill="url(#_EE6E2C0F-447E-4480-98EC-111E94385618background) white" stroke-width="1" style="stroke-dasharray: 5.5, 3"/>      <circle id="_EE6E2C0F-447E-4480-98EC-111E94385618frame" cx="15" cy="15" r="15" stroke="#000000" fill="none" stroke-width="1" display="inherit"/>          <path id="_EE6E2C0F-447E-4480-98EC-111E94385618body" style="fill:none;stroke-width:1.5;stroke-linecap:butt;stroke-linejoin:miter;stroke-miterlimit:10" stroke="black" d=" M21.820839 10.171502  L18.36734 23.58992  L12.541380000000002 13.281818999999999  L8.338651200000001 19.071607  L12.048949000000002 5.832305699999999  L17.996148000000005 15.132659  L21.820839 10.171502  z"/> 	<text font-size="11" id="_EE6E2C0F-447E-4480-98EC-111E94385618text_name" x="15" y="32" oryx:align="top center" stroke="black" stroke-width="0pt" letter-spacing="-0.01px" fill="#000000" text-anchor="middle" transform="rotate(0 15 32)" visibility="inherit" oryx:fontSize="11"><tspan x="15" y="32" dy="11">subStart </tspan></text>   </g></g><g class="children" style="overflow:hidden"/><g class="edge"/></g><g class="controls"><g class="dockers"/><g class="magnets" transform="translate(15, 45)"><g pointer-events="all" display="none" transform="translate(7, 7)"><circle cx="8" cy="8" r="4" stroke="none" fill="red" fill-opacity="0.3"/></g></g></g></g><g id="_BEEDA064-D758-4229-8F0C-8FCD8E6CCFF1" bpmn2nodeid="_583600ED-DDE8-4CA9-9B2B-E5CF80925330"><g class="stencils" transform="translate(98, 33)"><g class="me"><g pointer-events="fill" oryx:minimumSize="50 40" id="_BEEDA064-D758-4229-8F0C-8FCD8E6CCFF1">   	<defs id="_BEEDA064-D758-4229-8F0C-8FCD8E6CCFF1__BEEDA064-D758-4229-8F0C-8FCD8E6CCFF1_17"> 		<radialGradient id="_BEEDA064-D758-4229-8F0C-8FCD8E6CCFF1background" cx="10%" cy="10%" r="100%" fx="10%" fy="10%"> 			<stop offset="0%" stop-color="#ffffff" stop-opacity="1" id="_BEEDA064-D758-4229-8F0C-8FCD8E6CCFF1__BEEDA064-D758-4229-8F0C-8FCD8E6CCFF1_18"/> 			<stop id="_BEEDA064-D758-4229-8F0C-8FCD8E6CCFF1fill_el" offset="100%" stop-color="#fafad2" stop-opacity="1"/> 		</radialGradient> 		<radialGradient id="_BEEDA064-D758-4229-8F0C-8FCD8E6CCFF1borderbackground" cx="10%" cy="10%" r="100%" fx="10%" fy="10%"> 			<stop offset="0%" stop-color="#ffffff" stop-opacity="1" id="_BEEDA064-D758-4229-8F0C-8FCD8E6CCFF1__BEEDA064-D758-4229-8F0C-8FCD8E6CCFF1_19"/> 			<stop id="_BEEDA064-D758-4229-8F0C-8FCD8E6CCFF1fill_border" offset="100%" stop-color="#000000" stop-opacity="1" stroke="#000000"/> 		</radialGradient> 	</defs> 	 	<rect id="_BEEDA064-D758-4229-8F0C-8FCD8E6CCFF1text_frame" oryx:anchors="bottom top right left" x="1" y="1" width="79" height="54" rx="10" ry="10" stroke="none" stroke-width="0" fill="none"/> 	<rect id="_BEEDA064-D758-4229-8F0C-8FCD8E6CCFF1bg_frame" oryx:resize="vertical horizontal" x="0" y="0" width="85" height="55" rx="10" ry="10" stroke="#000000" stroke-width="1" fill="url(#_BEEDA064-D758-4229-8F0C-8FCD8E6CCFF1background) #ffffcc"/> 		<text font-size="12" id="_BEEDA064-D758-4229-8F0C-8FCD8E6CCFF1text_name" x="42.5" y="27.5" oryx:align="middle center" oryx:fittoelem="text_frame" stroke="black" text-anchor="middle" stroke-width="0pt" letter-spacing="-0.01px" fill="#000000" transform="rotate(0 42.5 27.5)" visibility="inherit" oryx:fontSize="12"><tspan x="42.5" y="27.5" dy="-1" id="ext-gen607">Handle </tspan><tspan x="42.5" y="27.5" dy="11" id="ext-gen608">Exception </tspan></text>     <g id="_BEEDA064-D758-4229-8F0C-8FCD8E6CCFF1manualTask" transform="scale(0.7,0.7) translate(8,8)" display="none">     	<path oryx:anchors="top left" id="_BEEDA064-D758-4229-8F0C-8FCD8E6CCFF1frame" style="opacity:1;fill:none;fill-opacity:1;stroke-width:1" d="M0.5,3.751l4.083-3.25c0,0,11.166,0.083,12.083,0.083s-2.417,2.917-1.5,2.917     s11.667,0,12.584,0c1.166,1.708-0.168,3.167-0.834,3.667s0.875,1.917-1,4.417c-0.75,0.25,0.75,1.875-1.333,3.333     c-1.167,0.583,0.583,1.542-1.25,2.833c-1.167,0-20.833,0.083-20.833,0.083l-2-1.333V3.751z" stroke="#000000"/> 		<path id="_BEEDA064-D758-4229-8F0C-8FCD8E6CCFF1frame2" oryx:anchors="top left" style="opacity:1;fill:none;stroke-width:2" d="M 13.5 7 L 27 7" stroke="#000000"/> 		<path id="_BEEDA064-D758-4229-8F0C-8FCD8E6CCFF1frame3" oryx:anchors="top left" style="opacity:1;fill:none;stroke-width:2" d="M 13.5 11 L 26 11" stroke="#000000"/> 		<path id="_BEEDA064-D758-4229-8F0C-8FCD8E6CCFF1frame4" oryx:anchors="top left" style="opacity:1;fill:none;stroke-width:1.5" d="M 14 14.5 L 25 14.5" stroke="#000000"/> 		<path id="_BEEDA064-D758-4229-8F0C-8FCD8E6CCFF1frame5" oryx:anchors="top left" style="opacity:1;fill:none;stroke-width:1.5" d="M 8.2 3.1 L 15 3.1" stroke="#000000"/> 	</g> 	 	<g id="_BEEDA064-D758-4229-8F0C-8FCD8E6CCFF1businessRuleTask" transform="scale(0.7,0.7) translate(8,8)" display="none"> 		<rect id="_BEEDA064-D758-4229-8F0C-8FCD8E6CCFF1frame6" oryx:anchors="top left" x="0" y="0" width="22" height="4" style="opacity:1;fill:#B3B1B3;fill-opacity:1;" stroke="#000000"/> 		<rect id="_BEEDA064-D758-4229-8F0C-8FCD8E6CCFF1frame7" oryx:anchors="top left" x="0" y="4" style="opacity:1;fill:none;" width="22" height="12" stroke="#000000"/> 		<path id="_BEEDA064-D758-4229-8F0C-8FCD8E6CCFF1frame8" oryx:anchors="top left" style="opacity:1;fill:none;" d="M 0 10 L 22 10" stroke="#000000"/> 		<path id="_BEEDA064-D758-4229-8F0C-8FCD8E6CCFF1frame9" oryx:anchors="top left" style="opacity:1; fill:none;" d="M 7 4 L 7 16" stroke="#000000"/> 	</g> 	 	<g id="_BEEDA064-D758-4229-8F0C-8FCD8E6CCFF1scriptTask" transform="scale(0.7,0.7) translate(8,8)" display="none"> 		<path oryx:anchors="top left" id="_BEEDA064-D758-4229-8F0C-8FCD8E6CCFF1frame10" style="opacity:1;fill:none;" stroke="#000000" d="M6.402,0.5h14.5c0,0-5.833,2.833-5.833,5.583s4.417,6,4.417,9.167    s-4.167,5.083-4.167,5.083H0.235c0,0,5-2.667,5-5s-4.583-6.75-4.583-9.25S6.402,0.5,6.402,0.5z"/> 		<path oryx:anchors="top left" id="_BEEDA064-D758-4229-8F0C-8FCD8E6CCFF1frame11" style="opacity:1;fill:none;stroke-width:1.5" d="M 3.5 4.5 L 13.5 4.5" stroke="#000000"/> 		<path oryx:anchors="top left" id="_BEEDA064-D758-4229-8F0C-8FCD8E6CCFF1frame12" style="opacity:1;fill:none;stroke-width:1.5" d="M 3.8 8.5 L 13.8 8.5" stroke="#000000"/> 		<path oryx:anchors="top left" id="_BEEDA064-D758-4229-8F0C-8FCD8E6CCFF1frame13" style="opacity:1;fill:none;stroke-width:1.5" d="M 6.3 12.5 L 16.3 12.5" stroke="#000000"/> 		<path oryx:anchors="top left" id="_BEEDA064-D758-4229-8F0C-8FCD8E6CCFF1frame14" style="opacity:1;fill:none;stroke-width:1.5" d="M 6.5 16.5 L 16.5 16.5" stroke="#000000"/> 	</g> 	 	<g id="_BEEDA064-D758-4229-8F0C-8FCD8E6CCFF1userTask" transform="scale(0.7,0.7) translate(8,8)" display="none"> 		<path id="_BEEDA064-D758-4229-8F0C-8FCD8E6CCFF1frame15" oryx:anchors="top left" style="opacity:1;fill:#F4F6F7" stroke="#000000" d="M0.585,24.167h24.083v-7.833c0,0-2.333-3.917-7.083-5.167h-9.25    c-4.417,1.333-7.833,5.75-7.833,5.75L0.585,24.167z"/> 		<path id="_BEEDA064-D758-4229-8F0C-8FCD8E6CCFF1frame16" oryx:anchors="top left" style="opacity:1;fill:none" d="M 6 20 L 6 24" stroke="#000000"/> 		<path id="_BEEDA064-D758-4229-8F0C-8FCD8E6CCFF1frame17" oryx:anchors="top left" style="opacity:1;fill:none" d="M 20 20 L 20 24" stroke="#000000"/> 		<circle id="_BEEDA064-D758-4229-8F0C-8FCD8E6CCFF1frame18" oryx:anchors="top left" fill="black" cx="13.002" cy="5.916" r="5.417" stroke="#000000"/> 		<path id="_BEEDA064-D758-4229-8F0C-8FCD8E6CCFF1frame19" oryx:anchors="top left" style="opacity:1;fill:#F0EFF0;" stroke="#000000" d="M8.043,7.083c0,0,2.814-2.426,5.376-1.807s4.624-0.693,4.624-0.693    c0.25,1.688,0.042,3.75-1.458,5.584c0,0,1.083,0.75,1.083,1.5s0.125,1.875-1,3s-5.5,1.25-6.75,0S8.668,12.834,8.668,12    s0.583-1.25,1.25-1.917C8.835,9.5,7.419,7.708,8.043,7.083z"/> 	</g> 	 	<g id="_BEEDA064-D758-4229-8F0C-8FCD8E6CCFF1serviceTask" transform="scale(0.7,0.7) translate(8,8)" display="inherit"> 		<polygon oryx:anchors="top left" id="_BEEDA064-D758-4229-8F0C-8FCD8E6CCFF1frame20" style="opacity:1;fill:#ffffff" stroke="#000000" points="15.392,5.064 17.954,2.502 20.347,4.895 17.786,7.455     18.729,9.732 22.353,9.732 22.353,13.115 18.731,13.115 17.788,15.392 20.351,17.955 17.958,20.347 15.397,17.786 13.12,18.729     13.12,22.353 9.737,22.353 9.737,18.731 7.46,17.788 4.897,20.35 2.506,17.958 5.066,15.397 4.124,13.12 0.5,13.12 0.5,9.737     4.121,9.737 5.065,7.461 2.503,4.898 4.895,2.506 7.455,5.066 9.732,4.125 9.732,0.5 13.116,0.5 13.116,4.121 "/> 		<circle oryx:anchors="top left" id="_BEEDA064-D758-4229-8F0C-8FCD8E6CCFF1frame21" style="opacity:1;fill:none" stroke="#000000" cx="11.427" cy="11.426" r="3.714"/> 		<polygon oryx:anchors="top left" id="_BEEDA064-D758-4229-8F0C-8FCD8E6CCFF1frame22" style="opacity:1;fill:#ffffff" stroke="#000000" points="21.392,11.064 23.954,8.502 26.347,10.895 23.786,13.455     24.729,15.732 28.353,15.732 28.353,19.115 24.731,19.115 23.788,21.392 26.351,23.955 23.958,26.347 21.397,23.786 19.12,24.729     19.12,28.353 15.737,28.353 15.737,24.731 13.46,23.788 10.897,26.35 8.506,23.958 11.066,21.397 10.124,19.12 6.5,19.12     6.5,15.737 10.121,15.737 11.065,13.461 8.503,10.898 10.895,8.506 13.455,11.066 15.732,10.125 15.732,6.5 19.116,6.5     19.116,10.121 "/> 		<circle oryx:anchors="top left" id="_BEEDA064-D758-4229-8F0C-8FCD8E6CCFF1frame23" style="opacity:1;fill:none;" stroke="#000000" cx="17.427" cy="17.426" r="3.714"/> 	</g> 	 	<g id="_BEEDA064-D758-4229-8F0C-8FCD8E6CCFF1sendTask" display="none"> 		<path id="_BEEDA064-D758-4229-8F0C-8FCD8E6CCFF1stframe24" oryx:anchors="left top" stroke="#FFFFFF" fill="black" stroke-width="1" d="M8,11 L8,21 L24,21 L24,11 L16,17z"/> 		<path id="_BEEDA064-D758-4229-8F0C-8FCD8E6CCFF1stframe25" oryx:anchors="left top" stroke="#FFFFFF" fill="black" stroke-width="1" d="M7,10 L16,17 L25 10z"/> 	</g> 	 	<g id="_BEEDA064-D758-4229-8F0C-8FCD8E6CCFF1receiveTask" display="none"> 		<path id="_BEEDA064-D758-4229-8F0C-8FCD8E6CCFF1frame26" oryx:anchors="left top" stroke="#000000" fill="none" stroke-width="1" d="M8,11 L8,21 L24,21 L24,11z M8,11 L16,17 L24,11"/> 	</g> 	 	<g id="_BEEDA064-D758-4229-8F0C-8FCD8E6CCFF1none" display="inherit"/>  	<g id="_BEEDA064-D758-4229-8F0C-8FCD8E6CCFF1sequential" display="none">         <path oryx:anchors="bottom" fill="none" stroke="#000000" stroke-width="2" d=" M38.35 51  h10  M38.35 47  h10  M38.35 43  h10 " id="_BEEDA064-D758-4229-8F0C-8FCD8E6CCFF1__BEEDA064-D758-4229-8F0C-8FCD8E6CCFF1_20"/>     </g>   </g></g><g class="children" style="overflow:hidden"/><g class="edge"/></g><g class="controls"><g class="dockers"/><g class="magnets" transform="translate(98, 33)"><g pointer-events="all" display="none" transform="translate(-7, 5.75)"><circle cx="8" cy="8" r="4" stroke="none" fill="red" fill-opacity="0.3"/></g><g pointer-events="all" display="none" transform="translate(-7, 19.5)"><circle cx="8" cy="8" r="4" stroke="none" fill="red" fill-opacity="0.3"/></g><g pointer-events="all" display="none" transform="translate(-7, 33.25)"><circle cx="8" cy="8" r="4" stroke="none" fill="red" fill-opacity="0.3"/></g><g pointer-events="all" display="none" transform="translate(13.25, 46)"><circle cx="8" cy="8" r="4" stroke="none" fill="red" fill-opacity="0.3"/></g><g pointer-events="all" display="none" transform="translate(34.5, 46)"><circle cx="8" cy="8" r="4" stroke="none" fill="red" fill-opacity="0.3"/></g><g pointer-events="all" display="none" transform="translate(55.75, 46)"><circle cx="8" cy="8" r="4" stroke="none" fill="red" fill-opacity="0.3"/></g><g pointer-events="all" display="none" transform="translate(76, 5.75)"><circle cx="8" cy="8" r="4" stroke="none" fill="red" fill-opacity="0.3"/></g><g pointer-events="all" display="none" transform="translate(76, 19.5)"><circle cx="8" cy="8" r="4" stroke="none" fill="red" fill-opacity="0.3"/></g><g pointer-events="all" display="none" transform="translate(76, 33.25)"><circle cx="8" cy="8" r="4" stroke="none" fill="red" fill-opacity="0.3"/></g><g pointer-events="all" display="none" transform="translate(13.25, -7)"><circle cx="8" cy="8" r="4" stroke="none" fill="red" fill-opacity="0.3"/></g><g pointer-events="all" display="none" transform="translate(34.5, -7)"><circle cx="8" cy="8" r="4" stroke="none" fill="red" fill-opacity="0.3"/></g><g pointer-events="all" display="none" transform="translate(55.75, -7)"><circle cx="8" cy="8" r="4" stroke="none" fill="red" fill-opacity="0.3"/></g><g pointer-events="all" display="none" transform="translate(34.5, 19.5)"><circle cx="8" cy="8" r="4" stroke="none" fill="red" fill-opacity="0.3"/></g></g></g></g><g id="_6A1195E6-8663-4AAA-BE82-0DDB939395D3" bpmn2nodeid="_4C1F2ED0-90E6-46C4-8E4E-5D80F2BE3FEB"><g class="stencils" transform="translate(230, 45)"><g class="me"><g pointer-events="fill" id="_6A1195E6-8663-4AAA-BE82-0DDB939395D3">      <defs id="_6A1195E6-8663-4AAA-BE82-0DDB939395D3__6A1195E6-8663-4AAA-BE82-0DDB939395D3_5"> 		<radialGradient id="_6A1195E6-8663-4AAA-BE82-0DDB939395D3background" cx="10%" cy="10%" r="100%" fx="10%" fy="10%"> 			<stop offset="0%" stop-color="#ffffff" stop-opacity="1" id="_6A1195E6-8663-4AAA-BE82-0DDB939395D3__6A1195E6-8663-4AAA-BE82-0DDB939395D3_6"/> 			<stop id="_6A1195E6-8663-4AAA-BE82-0DDB939395D3fill_el" offset="100%" stop-color="#ff6347" stop-opacity="1"/> 		</radialGradient> 	</defs> 	     <circle id="_6A1195E6-8663-4AAA-BE82-0DDB939395D3bg_frame" cx="14" cy="14" r="14" stroke="#000000" fill="url(#_6A1195E6-8663-4AAA-BE82-0DDB939395D3background) white" stroke-width="3"/> 	<text font-size="11" id="_6A1195E6-8663-4AAA-BE82-0DDB939395D3text_name" x="14" y="30" oryx:align="top center" stroke="black" stroke-width="0pt" letter-spacing="-0.01px" fill="#000000" text-anchor="middle" transform="rotate(0 14 30)" visibility="inherit" oryx:fontSize="11"><tspan x="14" y="30" dy="11">subEnd </tspan></text>   </g></g><g class="children" style="overflow:hidden"/><g class="edge"/></g><g class="controls"><g class="dockers"/><g class="magnets" transform="translate(230, 45)"><g pointer-events="all" display="none" transform="translate(6, 6)"><circle cx="8" cy="8" r="4" stroke="none" fill="red" fill-opacity="0.3"/></g></g></g></g></g><g class="edge"/></g><g class="controls"><g class="dockers"/><g class="magnets" transform="translate(330, 30)"><g pointer-events="all" display="none" transform="translate(-8, 49.5)"><circle cx="8" cy="8" r="4" stroke="none" fill="red" fill-opacity="0.3"/></g><g pointer-events="all" display="none" transform="translate(132, 107)"><circle cx="8" cy="8" r="4" stroke="none" fill="red" fill-opacity="0.3"/></g><g pointer-events="all" display="none" transform="translate(272, 49.5)"><circle cx="8" cy="8" r="4" stroke="none" fill="red" fill-opacity="0.3"/></g><g pointer-events="all" display="none" transform="translate(132, -8)"><circle cx="8" cy="8" r="4" stroke="none" fill="red" fill-opacity="0.3"/></g><g pointer-events="all" display="none" transform="translate(132, 49.5)"><circle cx="8" cy="8" r="4" stroke="none" fill="red" fill-opacity="0.3"/></g></g></g></g></g><g class="edge"><g id="_5D71A2AB-1923-49FE-914B-32C785C838C9" bpmn2nodeid="_BD4AA2EE-CDD7-41E7-B652-FFFE2CF83D25"><g class="stencils"><g class="me"><g pointer-events="painted" bpmn2nodeid="_220A397B-1CA7-429F-8117-6BF243D86C67"><path id="_5D71A2AB-1923-49FE-914B-32C785C838C9_1" d="M58.941398560738435 86.06251528847348L119.69532018926157 86.30076596152652 " stroke="#000000" fill="none" stroke-width="2" stroke-linecap="round" stroke-linejoin="round" marker-start="url(#_5D71A2AB-1923-49FE-914B-32C785C838C9start)" marker-end="url(#_5D71A2AB-1923-49FE-914B-32C785C838C9end)"/></g><text id="_5D71A2AB-1923-49FE-914B-32C785C838C9text_name" font-size="12" x="72.94139856073843" y="72.06251528847348" oryx:edgePosition="startTop" stroke-width="0pt" letter-spacing="-0.01px" fill="#000000" text-anchor="start" transform="rotate(0.22468817962453613 58.941398560738435 86.06251528847348)" visibility="inherit" oryx:fontSize="12"/></g><g class="children" style="overflow:hidden"/><g class="edge"/></g><g class="controls"><g class="dockers"/><g class="magnets"/></g></g><g id="_90770C56-20E8-4FEA-9F7F-027C22DC5164" bpmn2nodeid="_44BC4C46-61F9-47D4-803D-0DD1E98E4369"><g class="stencils"><g class="me"><g pointer-events="painted" bpmn2nodeid="_DF00CE0E-FFC1-481F-8558-4F850FD96E2D"><path id="_90770C56-20E8-4FEA-9F7F-027C22DC5164_1" d="M221.5116231999767 85.79477018617544L264.43759555002333 85.20132356382456 " stroke="#000000" fill="none" stroke-width="2" stroke-linecap="round" stroke-linejoin="round" marker-start="url(#_90770C56-20E8-4FEA-9F7F-027C22DC5164start)" marker-end="url(#_90770C56-20E8-4FEA-9F7F-027C22DC5164end)"/></g><text id="_90770C56-20E8-4FEA-9F7F-027C22DC5164text_name" font-size="12" x="235.5116231999767" y="71.79477018617544" oryx:edgePosition="startTop" stroke-width="0pt" letter-spacing="-0.01px" fill="#000000" text-anchor="start" transform="rotate(359.2079429078376 221.5116231999767 85.79477018617544)" visibility="inherit" oryx:fontSize="12"/></g><g class="children" style="overflow:hidden"/><g class="edge"/></g><g class="controls"><g class="dockers"/><g class="magnets"/></g></g><g id="_86BD077A-FF67-453A-82E8-BE6C9259DB77" bpmn2nodeid="_AB1BCBB3-8DF4-4B8C-9D9A-8543D35DCE52"><g class="stencils"><g class="me"><g pointer-events="painted" bpmn2nodeid="_6B3F4F75-979C-4C1F-B686-1C64E1D262CA"><path id="_86BD077A-FF67-453A-82E8-BE6C9259DB77_1" d="M375.67577101285656 90.07093109055592L427.19922898714344 90.30406890944408 " stroke="#000000" fill="none" stroke-width="2" stroke-linecap="round" stroke-linejoin="round" marker-start="url(#_86BD077A-FF67-453A-82E8-BE6C9259DB77start)" marker-end="url(#_86BD077A-FF67-453A-82E8-BE6C9259DB77end)"/></g><text id="_86BD077A-FF67-453A-82E8-BE6C9259DB77text_name" font-size="12" x="389.67577101285656" y="76.07093109055592" oryx:edgePosition="startTop" stroke-width="0pt" letter-spacing="-0.01px" fill="#000000" text-anchor="start" transform="rotate(0.2592551515013497 375.67577101285656 90.07093109055592)" visibility="inherit" oryx:fontSize="12"/></g><g class="children" style="overflow:hidden"/><g class="edge"/></g><g class="controls"><g class="dockers"/><g class="magnets"/></g></g><g id="_8805D29E-A0B2-4515-A865-FE5AA333646D" bpmn2nodeid="_792D5AD2-DC18-466C-87F8-F429451EDAAE"><g class="stencils"><g class="me"><g pointer-events="painted" bpmn2nodeid="_46A52AFB-D7F9-46C1-811B-3AA50D7FFD75"><path id="_8805D29E-A0B2-4515-A865-FE5AA333646D_1" d="M513.8827916889951 90.22011102136132L548 90 L548 91 L560.0029455144984 90.07669649888474 " stroke="#000000" fill="none" stroke-width="2" stroke-linecap="round" stroke-linejoin="round" marker-start="url(#_8805D29E-A0B2-4515-A865-FE5AA333646Dstart)" marker-end="url(#_8805D29E-A0B2-4515-A865-FE5AA333646Dend)"/></g><text id="_8805D29E-A0B2-4515-A865-FE5AA333646Dtext_name" font-size="12" x="527.8827916889951" y="76.22011102136132" oryx:edgePosition="startTop" stroke-width="0pt" letter-spacing="-0.01px" fill="#000000" text-anchor="start" transform="rotate(359.63035493815295 513.8827916889951 90.22011102136132)" visibility="inherit" oryx:fontSize="12"/></g><g class="children" style="overflow:hidden"/><g class="edge"/></g><g class="controls"><g class="dockers"/><g class="magnets"/></g></g></g><text id="_054079CA-83D9-4C47-9C77-7320DDF5FF2B" style="stroke-width:1;fill:rgb(177,194,214);font-family:arial;font-weight:bold" font-size="12" onclick="ORYX.Plugins.CanvasTitle.openTextualAnalysis()" onmouseover="ORYX.Plugins.CanvasTitle.addToolTip('_054079CA-83D9-4C47-9C77-7320DDF5FF2B')" transform="translate(10, 20)">Service Process v.1 (ProcessWithExceptionHandlingError)</text></g></g></svg>